<?xml version="1.0" encoding="utf-8"?>
<COLLADA xmlns="http://www.collada.org/2005/11/COLLADASchema" version="1.4.1" xmlns:xsi="http://www.w3.org/2001/XMLSchema-instance">
  <asset>
    <contributor>
      <author>Blender User</author>
      <authoring_tool>Blender 4.1.1 commit date:2024-04-15, commit time:15:11, hash:e1743a0317bc</authoring_tool>
    </contributor>
    <created>2026-06-16T12:36:06</created>
    <modified>2026-06-16T12:36:06</modified>
    <unit name="meter" meter="1"/>
    <up_axis>Z_UP</up_axis>
  </asset>
  <library_images/>
  <library_geometries>
    <geometry id="圆环-mesh" name="圆环">
      <mesh>
        <source id="圆环-mesh-positions">
          <float_array id="圆环-mesh-positions-array" count="384">0 0.07999998 0 -0.01560717 0.07846277 0 -0.03061467 0.07391035 0 -0.04444557 0.06651753 0 -0.0565685 0.0565685 0 -0.06651753 0.04444557 0 -0.07391035 0.03061467 0 -0.07846277 0.01560717 0 -0.07999998 0 0 -0.07846277 -0.01560717 0 -0.07391035 -0.03061467 0 -0.06651753 -0.04444557 0 -0.0565685 -0.0565685 0 -0.04444557 -0.06651753 0 -0.03061467 -0.07391035 0 -0.01560717 -0.07846277 0 0 -0.07999998 0 0.01560717 -0.07846277 0 0.03061467 -0.07391035 0 0.04444557 -0.06651753 0 0.0565685 -0.0565685 0 0.06651753 -0.04444557 0 0.07391035 -0.03061467 0 0.07846277 -0.01560717 0 0.07999998 0 0 0.07846277 0.01560717 0 0.07391035 0.03061467 0 0.06651753 0.04444557 0 0.0565685 0.0565685 0 0.04444557 0.06651753 0 0.03061467 0.07391035 0 0.01560717 0.07846277 0 0 0.08414751 0 -0.01641637 0.08253067 0 -0.03220182 0.07774215 0 -0.04674983 0.06996613 0 -0.05950129 0.05950129 0 -0.06996613 0.04674983 0 -0.07774215 0.03220182 0 -0.08253067 0.01641637 0 -0.08414751 0 0 -0.08253067 -0.01641637 0 -0.07774215 -0.03220182 0 -0.06996613 -0.04674983 0 -0.05950129 -0.05950129 0 -0.04674983 -0.06996613 0 -0.03220182 -0.07774215 0 -0.01641637 -0.08253067 0 0 -0.08414751 0 0.01641637 -0.08253067 0 0.03220182 -0.07774215 0 0.04674983 -0.06996613 0 0.05950129 -0.05950129 0 0.06996613 -0.04674983 0 0.07774215 -0.03220182 0 0.08253067 -0.01641637 0 0.08414751 0 0 0.08253067 0.01641637 0 0.07774215 0.03220182 0 0.06996613 0.04674983 0 0.05950129 0.05950129 0 0.04674983 0.06996613 0 0.03220182 0.07774215 0 0.01641637 0.08253067 0 0 0.07999998 0.005461096 -0.01560717 0.07846277 0.005461096 -0.03061467 0.07391035 0.005461096 -0.04444557 0.06651753 0.005461096 -0.0565685 0.0565685 0.005461096 -0.06651753 0.04444557 0.005461096 -0.07391035 0.03061467 0.005461096 -0.07846277 0.01560717 0.005461096 -0.07999998 0 0.005461096 -0.07846277 -0.01560717 0.005461096 -0.07391035 -0.03061467 0.005461096 -0.06651753 -0.04444557 0.005461096 -0.0565685 -0.0565685 0.005461096 -0.04444557 -0.06651753 0.005461096 -0.03061467 -0.07391035 0.005461096 -0.01560717 -0.07846277 0.005461096 0 -0.07999998 0.005461096 0.01560717 -0.07846277 0.005461096 0.03061467 -0.07391035 0.005461096 0.04444557 -0.06651753 0.005461096 0.0565685 -0.0565685 0.005461096 0.06651753 -0.04444557 0.005461096 0.07391035 -0.03061467 0.005461096 0.07846277 -0.01560717 0.005461096 0.07999998 0 0.005461096 0.07846277 0.01560717 0.005461096 0.07391035 0.03061467 0.005461096 0.06651753 0.04444557 0.005461096 0.0565685 0.0565685 0.005461096 0.04444557 0.06651753 0.005461096 0.03061467 0.07391035 0.005461096 0.01560717 0.07846277 0.005461096 0 0.08414751 0.005461096 -0.01641637 0.08253067 0.005461096 -0.03220182 0.07774215 0.005461096 -0.04674983 0.06996613 0.005461096 -0.05950129 0.05950129 0.005461096 -0.06996613 0.04674983 0.005461096 -0.07774215 0.03220182 0.005461096 -0.08253067 0.01641637 0.005461096 -0.08414751 0 0.005461096 -0.08253067 -0.01641637 0.005461096 -0.07774215 -0.03220182 0.005461096 -0.06996613 -0.04674983 0.005461096 -0.05950129 -0.05950129 0.005461096 -0.04674983 -0.06996613 0.005461096 -0.03220182 -0.07774215 0.005461096 -0.01641637 -0.08253067 0.005461096 0 -0.08414751 0.005461096 0.01641637 -0.08253067 0.005461096 0.03220182 -0.07774215 0.005461096 0.04674983 -0.06996613 0.005461096 0.05950129 -0.05950129 0.005461096 0.06996613 -0.04674983 0.005461096 0.07774215 -0.03220182 0.005461096 0.08253067 -0.01641637 0.005461096 0.08414751 0 0.005461096 0.08253067 0.01641637 0.005461096 0.07774215 0.03220182 0.005461096 0.06996613 0.04674983 0.005461096 0.05950129 0.05950129 0.005461096 0.04674983 0.06996613 0.005461096 0.03220182 0.07774215 0.005461096 0.01641637 0.08253067 0.005461096</float_array>
          <technique_common>
            <accessor source="#圆环-mesh-positions-array" count="128" stride="3">
              <param name="X" type="float"/>
              <param name="Y" type="float"/>
              <param name="Z" type="float"/>
            </accessor>
          </technique_common>
        </source>
        <source id="圆环-mesh-normals">
          <float_array id="圆环-mesh-normals-array" count="768">0 0 -1 0 0 -1 0 0 -1 0 0 -1 0 0 -1 0 0 -1 0 0 -1 0 0 -1 0 0 -1 0 0 -1 0 0 -1 0 0 -1 0 0 -1 0 0 -1 0 0 -1 0 0 -1 0 0 -1 0 0 -1 0 0 -1 0 0 -1 0 0 -1 0 0 -1 0 0 -1 0 0 -1 0 0 -1 0 0 -1 0 0 -1 0 0 -1 0 0 -1 0 0 -1 0 0 -1 0 0 -1 0 0 1 0 0 1 0 0 1 0 0 1 0 0 1 0 0 1 0 0 1 0 0 1 0 0 1 0 0 1 0 0 1 0 0 1 0 0 1 0 0 1 0 0 1 0 0 1 0 0 1 0 0 1 0 0 1 0 0 1 0 0 1 0 0 1 0 0 1 0 0 1 0 0 1 0 0 1 0 0 1 0 0 1 0 0 1 0 0 1 0 0 1 0 0 1 -0.9951847 0.09801763 0 0.4713964 0.8819214 0 -0.9951847 -0.09801763 0 0.2902847 0.9569404 0 -0.9569404 -0.2902847 0 0.09801733 0.9951847 0 -0.8819215 -0.4713963 0 -0.09801733 0.9951847 0 -0.7730102 -0.6343935 0 -0.2902847 0.9569404 0 -0.6343935 -0.7730102 0 -0.4713964 0.8819214 0 -0.4713963 -0.8819215 0 -0.6343935 0.7730104 0 -0.2902847 -0.9569403 0 -0.7730104 0.6343935 0 -0.09801763 -0.9951847 0 -0.8819214 0.4713964 0 0.09801763 -0.9951847 0 -0.9569404 0.2902847 0 0.2902847 -0.9569403 0 -0.9951847 0.09801733 0 0.4713963 -0.8819215 0 -0.9951847 -0.09801733 0 0.6343935 -0.7730102 0 -0.9569404 -0.2902847 0 0.7730102 -0.6343935 0 -0.8819214 -0.4713964 0 0.09801733 -0.9951847 0 0.8819215 -0.4713963 0 -0.7730104 -0.6343935 0 0.2902847 -0.9569404 0 0.9569404 -0.2902847 0 -0.6343935 -0.7730104 0 0.4713964 -0.8819214 0 0.9951847 -0.09801763 0 -0.4713964 -0.8819214 0 0.6343935 -0.7730104 0 0.9951847 0.09801763 0 -0.2902847 -0.9569404 0 0.7730104 -0.6343935 0 0.9569404 0.2902848 0 -0.09801733 -0.9951847 0 0.8819214 -0.4713964 0 0.8819215 0.4713962 0 -0.09801763 0.9951847 0 0.9569404 -0.2902847 0 0.7730102 0.6343935 0 -0.2902847 0.9569403 0 0.9951847 -0.09801733 0 0.6343935 0.7730102 0 -0.4713963 0.8819215 0 0.9951847 0.09801733 0 0.4713963 0.8819215 0 -0.6343935 0.7730102 0 0.9569404 0.2902847 0 0.2902847 0.9569403 0 -0.7730102 0.6343935 0 0.8819214 0.4713964 0 0.09801763 0.9951847 0 -0.8819215 0.4713962 0 0.7730104 0.6343935 0 -0.9569404 0.2902848 0 0.6343935 0.7730104 0 0 0 -1 0 0 -1 0 0 -1 0 0 -1 0 0 -1 0 0 -1 0 0 -1 0 0 -1 0 0 -1 0 0 -1 0 0 -1 0 0 -1 0 0 -1 0 0 -1 0 0 -1 0 0 -1 0 0 -1 0 0 -1 0 0 -1 0 0 -1 0 0 -1 0 0 -1 0 0 -1 0 0 -1 0 0 -1 0 0 -1 0 0 -1 0 0 -1 0 0 -1 0 0 -1 0 0 -1 0 0 -1 0 0 1 0 0 1 0 0 1 0 0 1 0 0 1 0 0 1 0 0 1 0 0 1 0 0 1 0 0 1 0 0 1 0 0 1 0 0 1 0 0 1 0 0 1 0 0 1 0 0 1 0 0 1 0 0 1 0 0 1 0 0 1 0 0 1 0 0 1 0 0 1 0 0 1 0 0 1 0 0 1 0 0 1 0 0 1 0 0 1 0 0 1 0 0 1 -0.9951847 0.09801763 0 0.4713964 0.8819214 0 -0.9951847 -0.09801763 0 0.2902847 0.9569404 0 -0.9569404 -0.2902847 0 0.09801733 0.9951847 0 -0.8819215 -0.4713963 0 -0.09801733 0.9951847 0 -0.7730102 -0.6343935 0 -0.2902847 0.9569404 0 -0.6343935 -0.7730102 0 -0.4713964 0.8819214 0 -0.4713963 -0.8819215 0 -0.6343935 0.7730104 0 -0.2902847 -0.9569403 0 -0.7730104 0.6343935 0 -0.09801763 -0.9951847 0 -0.8819214 0.4713964 0 0.09801763 -0.9951847 0 -0.9569404 0.2902847 0 0.2902847 -0.9569403 0 -0.9951847 0.09801733 0 0.4713963 -0.8819215 0 -0.9951847 -0.09801733 0 0.6343935 -0.7730102 0 -0.9569404 -0.2902847 0 0.7730102 -0.6343935 0 -0.8819214 -0.4713964 0 0.09801733 -0.9951847 0 0.8819215 -0.4713963 0 -0.7730104 -0.6343935 0 0.2902847 -0.9569404 0 0.9569404 -0.2902847 0 -0.6343935 -0.7730104 0 0.4713964 -0.8819214 0 0.9951847 -0.09801763 0 -0.4713964 -0.8819214 0 0.6343935 -0.7730104 0 0.9951847 0.09801763 0 -0.2902847 -0.9569404 0 0.7730104 -0.6343935 0 0.9569404 0.2902848 0 -0.09801733 -0.9951847 0 0.8819214 -0.4713964 0 0.8819215 0.4713962 0 -0.09801763 0.9951847 0 0.9569404 -0.2902847 0 0.7730102 0.6343935 0 -0.2902847 0.9569403 0 0.9951847 -0.09801733 0 0.6343935 0.7730102 0 -0.4713963 0.8819215 0 0.9951847 0.09801733 0 0.4713963 0.8819215 0 -0.6343935 0.7730102 0 0.9569404 0.2902847 0 0.2902847 0.9569403 0 -0.7730102 0.6343935 0 0.8819214 0.4713964 0 0.09801763 0.9951847 0 -0.8819215 0.4713962 0 0.7730104 0.6343935 0 -0.9569404 0.2902848 0 0.6343935 0.7730104 0</float_array>
          <technique_common>
            <accessor source="#圆环-mesh-normals-array" count="256" stride="3">
              <param name="X" type="float"/>
              <param name="Y" type="float"/>
              <param name="Z" type="float"/>
            </accessor>
          </technique_common>
        </source>
        <source id="圆环-mesh-map-0">
          <float_array id="圆环-mesh-map-0-array" count="1536">0 0 0 0 0 0 0 0 0 0 0 0 0 0 0 0 0 0 0 0 0 0 0 0 0 0 0 0 0 0 0 0 0 0 0 0 0 0 0 0 0 0 0 0 0 0 0 0 0 0 0 0 0 0 0 0 0 0 0 0 0 0 0 0 0 0 0 0 0 0 0 0 0 0 0 0 0 0 0 0 0 0 0 0 0 0 0 0 0 0 0 0 0 0 0 0 0 0 0 0 0 0 0 0 0 0 0 0 0 0 0 0 0 0 0 0 0 0 0 0 0 0 0 0 0 0 0 0 0 0 0 0 0 0 0 0 0 0 0 0 0 0 0 0 0 0 0 0 0 0 0 0 0 0 0 0 0 0 0 0 0 0 0 0 0 0 0 0 0 0 0 0 0 0 0 0 0 0 0 0 0 0 0 0 0 0 0 0 0 0 0 0 0 0 0 0 0 0 0 0 0 0 0 0 0 0 0 0 0 0 0 0 0 0 0 0 0 0 0 0 0 0 0 0 0 0 0 0 0 0 0 0 0 0 0 0 0 0 0 0 0 0 0 0 0 0 0 0 0 0 0 0 0 0 0 0 0 0 0 0 0 0 0 0 0 0 0 0 0 0 0 0 0 0 0 0 0 0 0 0 0 0 0 0 0 0 0 0 0 0 0 0 0 0 0 0 0 0 0 0 0 0 0 0 0 0 0 0 0 0 0 0 0 0 0 0 0 0 0 0 0 0 0 0 0 0 0 0 0 0 0 0 0 0 0 0 0 0 0 0 0 0 0 0 0 0 0 0 0 0 0 0 0 0 0 0 0 0 0 0 0 0 0 0 0 0 0 0 0 0 0 0 0 0 0 0 0 0 0 0 0 0 0 0 0 0 0 0 0 0 0 0 0 0 0 0 0 0 0 0 0 0 0 0 0 0 0 0 0 0 0 0 0 0 0 0 0 0 0 0 0 0 0 0 0 0 0 0 0 0 0 0 0 0 0 0 0 0 0 0 0 0 0 0 0 0 0 0 0 0 0 0 0 0 0 0 0 0 0 0 0 0 0 0 0 0 0 0 0 0 0 0 0 0 0 0 0 0 0 0 0 0 0 0 0 0 0 0 0 0 0 0 0 0 0 0 0 0 0 0 0 0 0 0 0 0 0 0 0 0 0 0 0 0 0 0 0 0 0 0 0 0 0 0 0 0 0 0 0 0 0 0 0 0 0 0 0 0 0 0 0 0 0 0 0 0 0 0 0 0 0 0 0 0 0 0 0 0 0 0 0 0 0 0 0 0 0 0 0 0 0 0 0 0 0 0 0 0 0 0 0 0 0 0 0 0 0 0 0 0 0 0 0 0 0 0 0 0 0 0 0 0 0 0 0 0 0 0 0 0 0 0 0 0 0 0 0 0 0 0 0 0 0 0 0 0 0 0 0 0 0 0 0 0 0 0 0 0 0 0 0 0 0 0 0 0 0 0 0 0 0 0 0 0 0 0 0 0 0 0 0 0 0 0 0 0 0 0 0 0 0 0 0 0 0 0 0 0 0 0 0 0 0 0 0 0 0 0 0 0 0 0 0 0 0 0 0 0 0 0 0 0 0 0 0 0 0 0 0 0 0 0 0 0 0 0 0 0 0 0 0 0 0 0 0 0 0 0 0 0 0 0 0 0 0 0 0 0 0 0 0 0 0 0 0 0 0 0 0 0 0 0 0 0 0 0 0 0 0 0 0 0 0 0 0 0 0 0 0 0 0 0 0 0 0 0 0 0 0 0 0 0 0 0 0 0 0 0 0 0 0 0 0 0 0 0 0 0 0 0 0 0 0 0 0 0 0 0 0 0 0 0 0 0 0 0 0 0 0 0 0 0 0 0 0 0 0 0 0 0 0 0 0 0 0 0 0 0 0 0 0 0 0 0 0 0 0 0 0 0 0 0 0 0 0 0 0 0 0 0 0 0 0 0 0 0 0 0 0 0 0 0 0 0 0 0 0 0 0 0 0 0 0 0 0 0 0 0 0 0 0 0 0 0 0 0 0 0 0 0 0 0 0 0 0 0 0 0 0 0 0 0 0 0 0 0 0 0 0 0 0 0 0 0 0 0 0 0 0 0 0 0 0 0 0 0 0 0 0 0 0 0 0 0 0 0 0 0 0 0 0 0 0 0 0 0 0 0 0 0 0 0 0 0 0 0 0 0 0 0 0 0 0 0 0 0 0 0 0 0 0 0 0 0 0 0 0 0 0 0 0 0 0 0 0 0 0 0 0 0 0 0 0 0 0 0 0 0 0 0 0 0 0 0 0 0 0 0 0 0 0 0 0 0 0 0 0 0 0 0 0 0 0 0 0 0 0 0 0 0 0 0 0 0 0 0 0 0 0 0 0 0 0 0 0 0 0 0 0 0 0 0 0 0 0 0 0 0 0 0 0 0 0 0 0 0 0 0 0 0 0 0 0 0 0 0 0 0 0 0 0 0 0 0 0 0 0 0 0 0 0 0 0 0 0 0 0 0 0 0 0 0 0 0 0 0 0 0 0 0 0 0 0 0 0 0 0 0 0 0 0 0 0 0 0 0 0 0 0 0 0 0 0 0 0 0 0 0 0 0 0 0 0 0 0 0 0 0 0 0 0 0 0 0 0 0 0 0 0 0 0 0 0 0 0 0 0 0 0 0 0 0 0 0 0 0 0 0 0 0 0 0 0 0 0 0 0 0 0 0 0 0 0 0 0 0 0 0 0 0 0 0 0 0 0 0 0 0 0 0 0 0 0 0 0 0 0 0 0 0 0 0 0 0 0 0 0 0 0 0 0 0 0 0 0 0 0 0 0 0 0 0 0 0 0 0 0 0 0 0 0 0 0 0 0 0 0 0 0 0 0 0 0 0 0 0 0 0 0 0 0 0 0 0 0 0 0 0 0 0 0 0 0 0 0 0 0 0 0 0 0 0 0 0 0 0 0 0 0 0 0 0 0 0 0 0 0 0 0 0 0 0 0 0 0 0 0 0 0 0 0 0 0 0 0 0 0 0 0 0 0 0 0 0 0 0 0 0 0 0 0 0 0 0 0 0 0 0 0 0 0 0 0 0 0 0 0 0 0 0 0 0 0 0 0 0 0 0 0 0 0 0 0 0 0 0 0 0 0 0 0 0 0 0 0 0 0 0 0 0 0 0 0 0 0 0 0 0 0 0 0 0 0 0 0 0 0 0 0 0 0 0 0 0 0 0 0 0 0 0 0 0 0 0 0 0 0 0 0 0 0 0 0 0 0 0 0 0 0 0 0 0 0 0 0 0 0 0 0 0 0 0 0 0 0 0 0 0 0 0 0 0 0 0 0 0 0 0 0 0 0 0 0 0 0 0 0 0 0 0 0 0 0 0 0 0 0 0 0 0 0 0 0 0 0 0 0 0 0 0 0 0 0 0 0 0 0 0 0 0 0 0 0 0 0 0 0 0 0 0 0 0 0 0 0 0</float_array>
          <technique_common>
            <accessor source="#圆环-mesh-map-0-array" count="768" stride="2">
              <param name="S" type="float"/>
              <param name="T" type="float"/>
            </accessor>
          </technique_common>
        </source>
        <vertices id="圆环-mesh-vertices">
          <input semantic="POSITION" source="#圆环-mesh-positions"/>
        </vertices>
        <triangles count="256">
          <input semantic="VERTEX" source="#圆环-mesh-vertices" offset="0"/>
          <input semantic="NORMAL" source="#圆环-mesh-normals" offset="1"/>
          <input semantic="TEXCOORD" source="#圆环-mesh-map-0" offset="2" set="0"/>
          <p>29 0 0 60 0 1 28 0 2 16 1 3 47 1 4 15 1 5 3 2 6 34 2 7 2 2 8 62 3 9 29 3 10 30 3 11 49 4 12 16 4 13 17 4 14 36 5 15 3 5 16 4 5 17 63 6 18 30 6 19 31 6 20 18 7 21 49 7 22 17 7 23 5 8 24 36 8 25 4 8 26 0 9 27 63 9 28 31 9 29 19 10 30 50 10 31 18 10 32 38 11 33 5 11 34 6 11 35 52 12 36 19 12 37 20 12 38 7 13 39 38 13 40 6 13 41 21 14 42 52 14 43 20 14 44 8 15 45 39 15 46 7 15 47 54 16 48 21 16 49 22 16 50 41 17 51 8 17 52 9 17 53 55 18 54 22 18 55 23 18 56 10 19 57 41 19 58 9 19 59 24 20 60 55 20 61 23 20 62 11 21 63 42 21 64 10 21 65 57 22 66 24 22 67 25 22 68 44 23 69 11 23 70 12 23 71 58 24 72 25 24 73 26 24 74 13 25 75 44 25 76 12 25 77 27 26 78 58 26 79 26 26 80 46 27 81 13 27 82 14 27 83 33 28 84 0 28 85 1 28 86 60 29 87 27 29 88 28 29 89 47 30 90 14 30 91 15 30 92 2 31 93 33 31 94 1 31 95 93 32 96 124 32 97 125 32 98 80 33 99 111 33 100 112 33 101 67 34 102 98 34 103 99 34 104 93 35 105 126 35 106 94 35 107 80 36 108 113 36 109 81 36 110 67 37 111 100 37 112 68 37 113 94 38 114 127 38 115 95 38 116 82 39 117 113 39 118 114 39 119 69 40 120 100 40 121 101 40 122 64 41 123 127 41 124 96 41 125 83 42 126 114 42 127 115 42 128 69 43 129 102 43 130 70 43 131 83 44 132 116 44 133 84 44 134 71 45 135 102 45 136 103 45 137 85 46 138 116 46 139 117 46 140 72 47 141 103 47 142 104 47 143 85 48 144 118 48 145 86 48 146 72 49 147 105 49 148 73 49 149 86 50 150 119 50 151 87 50 152 74 51 153 105 51 154 106 51 155 88 52 156 119 52 157 120 52 158 75 53 159 106 53 160 107 53 161 88 54 162 121 54 163 89 54 164 75 55 165 108 55 166 76 55 167 89 56 168 122 56 169 90 56 170 77 57 171 108 57 172 109 57 173 91 58 174 122 58 175 123 58 176 77 59 177 110 59 178 78 59 179 64 60 180 97 60 181 65 60 182 91 61 183 124 61 184 92 61 185 78 62 186 111 62 187 79 62 188 66 63 189 97 63 190 98 63 191 40 64 192 103 64 193 39 64 194 13 65 195 78 65 196 14 65 197 41 66 198 104 66 199 40 66 200 14 67 201 79 67 202 15 67 203 42 68 204 105 68 205 41 68 206 15 69 207 80 69 208 16 69 209 43 70 210 106 70 211 42 70 212 16 71 213 81 71 214 17 71 215 44 72 216 107 72 217 43 72 218 17 73 219 82 73 220 18 73 221 45 74 222 108 74 223 44 74 224 18 75 225 83 75 226 19 75 227 46 76 228 109 76 229 45 76 230 19 77 231 84 77 232 20 77 233 47 78 234 110 78 235 46 78 236 20 79 237 85 79 238 21 79 239 48 80 240 111 80 241 47 80 242 21 81 243 86 81 244 22 81 245 49 82 246 112 82 247 48 82 248 22 83 249 87 83 250 23 83 251 50 84 252 113 84 253 49 84 254 23 85 255 88 85 256 24 85 257 51 86 258 114 86 259 50 86 260 24 87 261 89 87 262 25 87 263 52 88 264 115 88 265 51 88 266 25 89 267 90 89 268 26 89 269 53 90 270 116 90 271 52 90 272 26 91 273 91 91 274 27 91 275 0 92 276 65 92 277 1 92 278 54 93 279 117 93 280 53 93 281 27 94 282 92 94 283 28 94 284 1 95 285 66 95 286 2 95 287 55 96 288 118 96 289 54 96 290 28 97 291 93 97 292 29 97 293 2 98 294 67 98 295 3 98 296 56 99 297 119 99 298 55 99 299 29 100 300 94 100 301 30 100 302 3 101 303 68 101 304 4 101 305 57 102 306 120 102 307 56 102 308 30 103 309 95 103 310 31 103 311 4 104 312 69 104 313 5 104 314 58 105 315 121 105 316 57 105 317 31 106 318 64 106 319 0 106 320 5 107 321 70 107 322 6 107 323 59 108 324 122 108 325 58 108 326 33 109 327 96 109 328 32 109 329 6 110 330 71 110 331 7 110 332 60 111 333 123 111 334 59 111 335 34 112 336 97 112 337 33 112 338 7 113 339 72 113 340 8 113 341 61 114 342 124 114 343 60 114 344 35 115 345 98 115 346 34 115 347 8 116 348 73 116 349 9 116 350 62 117 351 125 117 352 61 117 353 36 118 354 99 118 355 35 118 356 9 119 357 74 119 358 10 119 359 63 120 360 126 120 361 62 120 362 37 121 363 100 121 364 36 121 365 10 122 366 75 122 367 11 122 368 32 123 369 127 123 370 63 123 371 38 124 372 101 124 373 37 124 374 11 125 375 76 125 376 12 125 377 39 126 378 102 126 379 38 126 380 12 127 381 77 127 382 13 127 383 29 128 384 61 128 385 60 128 386 16 129 387 48 129 388 47 129 389 3 130 390 35 130 391 34 130 392 62 131 393 61 131 394 29 131 395 49 132 396 48 132 397 16 132 398 36 133 399 35 133 400 3 133 401 63 134 402 62 134 403 30 134 404 18 135 405 50 135 406 49 135 407 5 136 408 37 136 409 36 136 410 0 137 411 32 137 412 63 137 413 19 138 414 51 138 415 50 138 416 38 139 417 37 139 418 5 139 419 52 140 420 51 140 421 19 140 422 7 141 423 39 141 424 38 141 425 21 142 426 53 142 427 52 142 428 8 143 429 40 143 430 39 143 431 54 144 432 53 144 433 21 144 434 41 145 435 40 145 436 8 145 437 55 146 438 54 146 439 22 146 440 10 147 441 42 147 442 41 147 443 24 148 444 56 148 445 55 148 446 11 149 447 43 149 448 42 149 449 57 150 450 56 150 451 24 150 452 44 151 453 43 151 454 11 151 455 58 152 456 57 152 457 25 152 458 13 153 459 45 153 460 44 153 461 27 154 462 59 154 463 58 154 464 46 155 465 45 155 466 13 155 467 33 156 468 32 156 469 0 156 470 60 157 471 59 157 472 27 157 473 47 158 474 46 158 475 14 158 476 2 159 477 34 159 478 33 159 479 93 160 480 92 160 481 124 160 482 80 161 483 79 161 484 111 161 485 67 162 486 66 162 487 98 162 488 93 163 489 125 163 490 126 163 491 80 164 492 112 164 493 113 164 494 67 165 495 99 165 496 100 165 497 94 166 498 126 166 499 127 166 500 82 167 501 81 167 502 113 167 503 69 168 504 68 168 505 100 168 506 64 169 507 95 169 508 127 169 509 83 170 510 82 170 511 114 170 512 69 171 513 101 171 514 102 171 515 83 172 516 115 172 517 116 172 518 71 173 519 70 173 520 102 173 521 85 174 522 84 174 523 116 174 524 72 175 525 71 175 526 103 175 527 85 176 528 117 176 529 118 176 530 72 177 531 104 177 532 105 177 533 86 178 534 118 178 535 119 178 536 74 179 537 73 179 538 105 179 539 88 180 540 87 180 541 119 180 542 75 181 543 74 181 544 106 181 545 88 182 546 120 182 547 121 182 548 75 183 549 107 183 550 108 183 551 89 184 552 121 184 553 122 184 554 77 185 555 76 185 556 108 185 557 91 186 558 90 186 559 122 186 560 77 187 561 109 187 562 110 187 563 64 188 564 96 188 565 97 188 566 91 189 567 123 189 568 124 189 569 78 190 570 110 190 571 111 190 572 66 191 573 65 191 574 97 191 575 40 192 576 104 192 577 103 192 578 13 193 579 77 193 580 78 193 581 41 194 582 105 194 583 104 194 584 14 195 585 78 195 586 79 195 587 42 196 588 106 196 589 105 196 590 15 197 591 79 197 592 80 197 593 43 198 594 107 198 595 106 198 596 16 199 597 80 199 598 81 199 599 44 200 600 108 200 601 107 200 602 17 201 603 81 201 604 82 201 605 45 202 606 109 202 607 108 202 608 18 203 609 82 203 610 83 203 611 46 204 612 110 204 613 109 204 614 19 205 615 83 205 616 84 205 617 47 206 618 111 206 619 110 206 620 20 207 621 84 207 622 85 207 623 48 208 624 112 208 625 111 208 626 21 209 627 85 209 628 86 209 629 49 210 630 113 210 631 112 210 632 22 211 633 86 211 634 87 211 635 50 212 636 114 212 637 113 212 638 23 213 639 87 213 640 88 213 641 51 214 642 115 214 643 114 214 644 24 215 645 88 215 646 89 215 647 52 216 648 116 216 649 115 216 650 25 217 651 89 217 652 90 217 653 53 218 654 117 218 655 116 218 656 26 219 657 90 219 658 91 219 659 0 220 660 64 220 661 65 220 662 54 221 663 118 221 664 117 221 665 27 222 666 91 222 667 92 222 668 1 223 669 65 223 670 66 223 671 55 224 672 119 224 673 118 224 674 28 225 675 92 225 676 93 225 677 2 226 678 66 226 679 67 226 680 56 227 681 120 227 682 119 227 683 29 228 684 93 228 685 94 228 686 3 229 687 67 229 688 68 229 689 57 230 690 121 230 691 120 230 692 30 231 693 94 231 694 95 231 695 4 232 696 68 232 697 69 232 698 58 233 699 122 233 700 121 233 701 31 234 702 95 234 703 64 234 704 5 235 705 69 235 706 70 235 707 59 236 708 123 236 709 122 236 710 33 237 711 97 237 712 96 237 713 6 238 714 70 238 715 71 238 716 60 239 717 124 239 718 123 239 719 34 240 720 98 240 721 97 240 722 7 241 723 71 241 724 72 241 725 61 242 726 125 242 727 124 242 728 35 243 729 99 243 730 98 243 731 8 244 732 72 244 733 73 244 734 62 245 735 126 245 736 125 245 737 36 246 738 100 246 739 99 246 740 9 247 741 73 247 742 74 247 743 63 248 744 127 248 745 126 248 746 37 249 747 101 249 748 100 249 749 10 250 750 74 250 751 75 250 752 32 251 753 96 251 754 127 251 755 38 252 756 102 252 757 101 252 758 11 253 759 75 253 760 76 253 761 39 254 762 103 254 763 102 254 764 12 255 765 76 255 766 77 255 767</p>
        </triangles>
      </mesh>
    </geometry>
  </library_geometries>
  <library_visual_scenes>
    <visual_scene id="Scene" name="Scene">
      <node id="圆环" name="圆环" type="NODE">
        <matrix sid="transform">1 0 0 0 0 1 0 0 0 0 1 0 0 0 0 1</matrix>
        <instance_geometry url="#圆环-mesh" name="圆环"/>
      </node>
    </visual_scene>
  </library_visual_scenes>
  <scene>
    <instance_visual_scene url="#Scene"/>
  </scene>
</COLLADA>