<?xml version="1.0" encoding="utf-8"?>
<COLLADA xmlns="http://www.collada.org/2005/11/COLLADASchema" version="1.4.1" xmlns:xsi="http://www.w3.org/2001/XMLSchema-instance">
  <asset>
    <contributor>
      <author>Blender User</author>
      <authoring_tool>Blender 4.1.1 commit date:2024-04-15, commit time:15:11, hash:e1743a0317bc</authoring_tool>
    </contributor>
    <created>2026-06-16T14:42:39</created>
    <modified>2026-06-16T14:42:39</modified>
    <unit name="meter" meter="1"/>
    <up_axis>Z_UP</up_axis>
  </asset>
  <library_effects>
    <effect id="white-pw-mt11050_003-effect">
      <profile_COMMON>
        <newparam sid="oriented_strand_board_diff_4k_jpg_004-surface">
          <surface type="2D">
            <init_from>oriented_strand_board_diff_4k_jpg_004</init_from>
          </surface>
        </newparam>
        <newparam sid="oriented_strand_board_diff_4k_jpg_004-sampler">
          <sampler2D>
            <source>oriented_strand_board_diff_4k_jpg_004-surface</source>
          </sampler2D>
        </newparam>
        <technique sid="common">
          <lambert>
            <emission>
              <color sid="emission">0 0 0 1</color>
            </emission>
            <diffuse>
              <texture texture="oriented_strand_board_diff_4k_jpg_004-sampler" texcoord="UVMap"/>
            </diffuse>
            <index_of_refraction>
              <float sid="ior">1.5</float>
            </index_of_refraction>
          </lambert>
        </technique>
      </profile_COMMON>
    </effect>
    <effect id="材质_012-effect">
      <profile_COMMON>
        <newparam sid="_3_png-surface">
          <surface type="2D">
            <init_from>_3_png</init_from>
          </surface>
        </newparam>
        <newparam sid="_3_png-sampler">
          <sampler2D>
            <source>_3_png-surface</source>
          </sampler2D>
        </newparam>
        <technique sid="common">
          <lambert>
            <emission>
              <color sid="emission">0 0 0 1</color>
            </emission>
            <diffuse>
              <texture texture="_3_png-sampler" texcoord="UVMap"/>
            </diffuse>
            <index_of_refraction>
              <float sid="ior">1.5</float>
            </index_of_refraction>
          </lambert>
        </technique>
      </profile_COMMON>
    </effect>
  </library_effects>
  <library_images>
    <image id="_3_png" name="_3_png">
      <init_from>03.png</init_from>
    </image>
    <image id="oriented_strand_board_diff_4k_jpg_004" name="oriented_strand_board_diff_4k_jpg_004">
      <init_from>oriented_strand_board_diff_4k.jpg.004.jpg</init_from>
    </image>
  </library_images>
  <library_materials>
    <material id="white-pw-mt11050_003-material" name="white-pw-mt11050.003">
      <instance_effect url="#white-pw-mt11050_003-effect"/>
    </material>
    <material id="材质_012-material" name="材质.012">
      <instance_effect url="#材质_012-effect"/>
    </material>
  </library_materials>
  <library_geometries>
    <geometry id="Mesh_0_005-mesh" name="Mesh_0.005">
      <mesh>
        <source id="Mesh_0_005-mesh-positions">
          <float_array id="Mesh_0_005-mesh-positions-array" count="96">-0.2998784 -0.3019397 0 0.297483 -0.3019397 0 -0.2998784 0.2954216 0 0.297483 0.2954216 0 -0.2998784 -0.3019397 0.00999999 0.297483 -0.3019397 0.00999999 -0.2998784 0.2954216 0.00999999 0.297483 0.2954216 0.00999999 -0.1959795 -0.3019397 0 -0.1959795 0.2954216 0 -0.1959795 -0.3019397 0.00999999 -0.1959795 0.2954216 0.00999999 0.1959795 -0.3019397 0 0.1959795 -0.3019397 0.00999999 0.1959795 0.2954216 0 0.1959795 0.2954216 0.00999999 -0.2998784 0.1929922 0 0.297483 0.1929922 0 -0.2998784 0.1929922 0.00999999 0.297483 0.1929922 0.00999999 -0.1959795 0.1929922 0.00999999 -0.1959795 0.1929922 0 0.1959795 0.1929922 0.00999999 0.1959795 0.1929922 0 -0.2998784 -0.1929924 0 -0.2998784 -0.1929924 0.00999999 -0.1959795 -0.1929924 0 0.1959795 -0.1929924 0 0.297483 -0.1929924 0 0.297483 -0.1929924 0.00999999 -0.1959795 -0.1929924 0.00999999 0.1959795 -0.1929924 0.00999999</float_array>
          <technique_common>
            <accessor source="#Mesh_0_005-mesh-positions-array" count="32" stride="3">
              <param name="X" type="float"/>
              <param name="Y" type="float"/>
              <param name="Z" type="float"/>
            </accessor>
          </technique_common>
        </source>
        <source id="Mesh_0_005-mesh-normals">
          <float_array id="Mesh_0_005-mesh-normals-array" count="18">0 0 -1 0 0 1 1 0 0 0 -1 0 0 1 0 -1 0 0</float_array>
          <technique_common>
            <accessor source="#Mesh_0_005-mesh-normals-array" count="6" stride="3">
              <param name="X" type="float"/>
              <param name="Y" type="float"/>
              <param name="Z" type="float"/>
            </accessor>
          </technique_common>
        </source>
        <source id="Mesh_0_005-mesh-map-0">
          <float_array id="Mesh_0_005-mesh-map-0-array" count="360">0.8300805 1 1 0.8285303 0.8300805 0.8285303 1 0.8285302 0.8300805 1 0.8300805 0.8285303 1 1 1 0.8285302 1 0.8285303 1 0 0.8300805 0 0.8300804 0 0 1 0.1739294 1 0.1739294 1 0 0 0 0.1823809 0 0.1823809 0.1739294 1 0.8300805 1 0.8300805 1 0.1739294 0 0 0 0 0 0.1739294 0.8285303 0 1 0 0.8285303 0 1 0.1739294 0.8285303 0 0.8285304 0.8300805 1 1 1 1 1 0.8300804 0 0.1739294 0 0.1739294 0 0.8300805 0.8285303 0.1739294 1 0.1739294 0.8285303 0.1739294 1 0.8300805 0.8285303 0.1739294 0.8285303 0.1739294 0.8285303 0.8300804 0.1823809 0.1739294 0.1823809 9.998503 67.00772 8.998503 68.00772 8.998503 67.00772 0 0.8285304 0.1739294 0.1823809 0 0.1823809 0.1739294 0.1823809 0 0.8285303 0 0.1823809 0 0.8285304 0 1 0 1 1 0.8285303 1 0.1823809 1 0.1823809 1 0.1823809 0.8300805 0.8285303 0.8300805 0.1823809 0.8300805 0.8285303 1 0.1823809 0.8300804 0.1823809 0.8300804 0.1823809 1 0 0.8300804 0 1 0 0.8300805 0.1823809 0.8300805 0 1 0.1823809 1 0 1 0 0.1739294 0 0 0.1823809 0 0 0 0.1823809 0.1739294 0 0 0 0.8300805 0 0.1739294 0.1823809 0.1739294 0 0.1739294 0.1823809 0.8300804 0 0.1739294 0 0 0.1823809 0 0.8285303 0 0.8285304 0.8300805 1 1 1 1 0.8285303 1 0.8285302 1 1 0.8300805 1 1 1 1 1 1 0.8285302 1 0 1 0 0.8300805 0 0 1 0 1 0.1739294 1 0 0 0 0 0 0.1823809 0.1739294 1 0.1739294 1 0.8300805 1 0.1739294 0 0.1739294 0 0 0 0.1739294 0.8285303 0.1739294 1 0 1 0 1 0.1739294 1 0.1739294 0.8285303 0.8300805 1 0.8300805 1 1 1 0.8300804 0 0.8300805 0 0.1739294 0 0.8300805 0.8285303 0.8300805 1 0.1739294 1 0.1739294 1 0.8300805 1 0.8300805 0.8285303 0.1739294 0.8285303 0.8300805 0.8285303 0.8300804 0.1823809 9.998503 67.00772 9.998503 68.00772 8.998503 68.00772 0 0.8285304 0.1739294 0.8285303 0.1739294 0.1823809 0.1739294 0.1823809 0.1739294 0.8285303 0 0.8285303 0 0.8285304 0 0.8285303 0 1 1 0.8285303 1 0.8285302 1 0.1823809 1 0.1823809 1 0.8285302 0.8300805 0.8285303 0.8300805 0.8285303 1 0.8285303 1 0.1823809 0.8300804 0.1823809 1 0.1823809 1 0 1 0 1 0.1823809 0.8300805 0.1823809 1 0.1823809 1 0.1823809 1 0 0.1739294 0 0.1739294 0.1823809 0 0.1823809 0 0.1823809 0.1739294 0.1823809 0.1739294 0 0.8300805 0 0.8300805 0.1823809 0.1739294 0.1823809 0.1739294 0.1823809 0.8300804 0.1823809 0.8300804 0 0 0.1823809 0 0.1823809 0 0.8285303</float_array>
          <technique_common>
            <accessor source="#Mesh_0_005-mesh-map-0-array" count="180" stride="2">
              <param name="S" type="float"/>
              <param name="T" type="float"/>
            </accessor>
          </technique_common>
        </source>
        <vertices id="Mesh_0_005-mesh-vertices">
          <input semantic="POSITION" source="#Mesh_0_005-mesh-positions"/>
        </vertices>
        <triangles material="white-pw-mt11050_003-material" count="56">
          <input semantic="VERTEX" source="#Mesh_0_005-mesh-vertices" offset="0"/>
          <input semantic="NORMAL" source="#Mesh_0_005-mesh-normals" offset="1"/>
          <input semantic="TEXCOORD" source="#Mesh_0_005-mesh-map-0" offset="2" set="0"/>
          <p>14 0 0 17 0 1 23 0 2 19 1 3 15 1 4 22 1 5 3 2 6 19 2 7 17 2 8 1 3 9 13 3 10 12 3 11 2 4 12 11 4 13 9 4 14 0 5 15 25 5 16 24 5 17 9 4 18 15 4 19 14 4 20 8 3 21 4 3 22 0 3 23 20 1 24 6 1 25 18 1 26 2 0 27 21 0 28 16 0 29 14 4 30 7 4 31 3 4 32 12 3 33 10 3 34 8 3 35 22 1 36 11 1 37 20 1 38 9 0 39 23 0 40 21 0 41 16 0 48 26 0 49 24 0 50 30 1 51 18 1 52 25 1 53 16 5 54 6 5 55 2 5 56 17 2 57 29 2 58 28 2 59 29 1 60 22 1 61 31 1 62 23 0 63 28 0 64 27 0 65 27 0 66 1 0 67 12 0 68 5 1 69 31 1 70 13 1 71 28 2 72 5 2 73 1 2 74 10 1 75 25 1 76 4 1 77 24 0 78 8 0 79 0 0 80 13 1 81 30 1 82 10 1 83 26 0 84 12 0 85 8 0 86 24 5 87 18 5 88 16 5 89 14 0 90 3 0 91 17 0 92 19 1 93 7 1 94 15 1 95 3 2 96 7 2 97 19 2 98 1 3 99 5 3 100 13 3 101 2 4 102 6 4 103 11 4 104 0 5 105 4 5 106 25 5 107 9 4 108 11 4 109 15 4 110 8 3 111 10 3 112 4 3 113 20 1 114 11 1 115 6 1 116 2 0 117 9 0 118 21 0 119 14 4 120 15 4 121 7 4 122 12 3 123 13 3 124 10 3 125 22 1 126 15 1 127 11 1 128 9 0 129 14 0 130 23 0 131 16 0 138 21 0 139 26 0 140 30 1 141 20 1 142 18 1 143 16 5 144 18 5 145 6 5 146 17 2 147 19 2 148 29 2 149 29 1 150 19 1 151 22 1 152 23 0 153 17 0 154 28 0 155 27 0 156 28 0 157 1 0 158 5 1 159 29 1 160 31 1 161 28 2 162 29 2 163 5 2 164 10 1 165 30 1 166 25 1 167 24 0 168 26 0 169 8 0 170 13 1 171 31 1 172 30 1 173 26 0 174 27 0 175 12 0 176 24 5 177 25 5 178 18 5 179</p>
        </triangles>
        <triangles material="材质_012-material" count="4">
          <input semantic="VERTEX" source="#Mesh_0_005-mesh-vertices" offset="0"/>
          <input semantic="NORMAL" source="#Mesh_0_005-mesh-normals" offset="1"/>
          <input semantic="TEXCOORD" source="#Mesh_0_005-mesh-map-0" offset="2" set="0"/>
          <p>21 0 42 27 0 43 26 0 44 31 1 45 20 1 46 30 1 47 21 0 132 23 0 133 27 0 134 31 1 135 22 1 136 20 1 137</p>
        </triangles>
      </mesh>
    </geometry>
  </library_geometries>
  <library_visual_scenes>
    <visual_scene id="Scene" name="Scene">
      <node id="零件1_SLDPRT_003" name="零件1.SLDPRT.003" type="NODE">
        <matrix sid="transform">1 0 0 0 0 1 0 0 0 0 1 0 0 0 0 1</matrix>
        <instance_geometry url="#Mesh_0_005-mesh" name="零件1.SLDPRT.003">
          <bind_material>
            <technique_common>
              <instance_material symbol="white-pw-mt11050_003-material" target="#white-pw-mt11050_003-material">
                <bind_vertex_input semantic="UVMap" input_semantic="TEXCOORD" input_set="0"/>
              </instance_material>
              <instance_material symbol="材质_012-material" target="#材质_012-material">
                <bind_vertex_input semantic="UVMap" input_semantic="TEXCOORD" input_set="0"/>
              </instance_material>
            </technique_common>
          </bind_material>
        </instance_geometry>
      </node>
    </visual_scene>
  </library_visual_scenes>
  <scene>
    <instance_visual_scene url="#Scene"/>
  </scene>
</COLLADA>